<svg xmlns="http://www.w3.org/2000/svg" viewBox="0 0 64 64">
  <!-- fundo escuro arredondado -->
  <rect width="64" height="64" rx="14" fill="#151120"/>

  <!-- corpo gengar -->
  <path d="M32 8 C18 8 10 18 10 30 C10 44 16 52 24 54 L24 50 L20 50 C20 50 22 46 24 46 L24 42 L20 42 C20 42 22 38 26 38 C28 38 28 40 32 40 C36 40 36 38 38 38 C42 38 44 42 44 42 L40 42 L40 46 C42 46 44 50 44 50 L40 50 L40 54 C48 52 54 44 54 30 C54 18 46 8 32 8Z" fill="#7e22ce"/>

  <!-- picos do topo -->
  <path d="M22 14 L18 6 L24 12" fill="#7e22ce"/>
  <path d="M32 10 L30 2 L34 10" fill="#7e22ce"/>
  <path d="M42 14 L46 6 L40 12" fill="#7e22ce"/>

  <!-- olho esquerdo -->
  <ellipse cx="24" cy="28" rx="6" ry="6.5" fill="#dc2626"/>
  <ellipse cx="25" cy="27" rx="3" ry="3.5" fill="#7f1d1d"/>
  <circle cx="26" cy="25.5" r="1.2" fill="#fca5a5"/>

  <!-- olho direito -->
  <ellipse cx="40" cy="28" rx="6" ry="6.5" fill="#dc2626"/>
  <ellipse cx="41" cy="27" rx="3" ry="3.5" fill="#7f1d1d"/>
  <circle cx="42" cy="25.5" r="1.2" fill="#fca5a5"/>

  <!-- sorriso -->
  <path d="M20 38 Q32 46 44 38" fill="#1a0a2e" stroke="#1a0a2e" stroke-width="1"/>

  <!-- dentes -->
  <rect x="23" y="37" width="5" height="5" rx="1" fill="white"/>
  <rect x="29.5" y="37" width="5" height="6" rx="1" fill="white"/>
  <rect x="36" y="37" width="5" height="5" rx="1" fill="white"/>
</svg>
